<svg version="1.1" id="Layer_1" xmlns="http://www.w3.org/2000/svg" xmlns:xlink="http://www.w3.org/1999/xlink" x="0px" y="0px"
	 width="100%" viewBox="0 0 1870 419" enable-background="new 0 0 1870 419" xml:space="preserve">
<path fill="#FFFFFF" opacity="1.000000" stroke="none" 
	d="
M1376.000854,186.000000 
	C1376.000854,228.806839 1376.000854,271.113678 1376.000854,313.710571 
	C1363.721680,313.710571 1351.649658,313.710571 1339.239990,313.710571 
	C1339.239990,265.364441 1339.239990,216.942657 1339.239990,168.520889 
	C1338.924805,168.448135 1338.609497,168.375381 1338.294312,168.302628 
	C1326.722778,201.066681 1315.151245,233.830734 1303.436157,267.001007 
	C1298.548828,267.001007 1293.398315,266.872498 1288.258179,267.050079 
	C1285.262329,267.153564 1283.957275,266.388947 1282.840942,263.165131 
	C1272.009033,231.887085 1260.850342,200.722244 1249.188477,169.521393 
	C1249.188477,217.551636 1249.188477,265.581879 1249.188477,313.797974 
	C1236.528320,313.797974 1224.457397,313.797974 1212.192871,313.797974 
	C1212.192871,240.685989 1212.192871,167.777069 1212.192871,94.397888 
	C1226.670410,94.397888 1240.961548,94.331345 1255.249268,94.522530 
	C1256.409302,94.538048 1258.173950,96.096275 1258.601318,97.309654 
	C1270.252441,130.396957 1281.765747,163.532776 1293.731079,197.891907 
	C1296.044922,191.475739 1298.070312,186.011475 1299.990234,180.510345 
	C1309.679443,152.748322 1319.314819,124.967346 1329.103638,97.240517 
	C1329.523560,96.051033 1331.261230,94.528107 1332.402588,94.513268 
	C1346.707520,94.327431 1361.015747,94.391449 1376.000854,94.391449 
	C1376.000854,125.018143 1376.000854,155.259079 1376.000854,186.000000 
z"/>
<path fill="#FFFFFF" opacity="1.000000" stroke="none" 
	d="
M1577.110840,314.001312 
	C1575.171875,314.001312 1573.721436,314.001312 1572.233154,314.001312 
	C1572.233154,240.610123 1572.233154,167.710281 1572.233154,94.388237 
	C1573.927368,94.388237 1575.391357,94.388229 1576.855347,94.388237 
	C1605.349609,94.388298 1633.844360,94.304947 1662.336914,94.528549 
	C1664.939575,94.548988 1668.035034,95.961441 1670.022339,97.720802 
	C1675.243896,102.343773 1681.894653,106.721321 1684.370728,112.691818 
	C1686.851196,118.672951 1684.994019,126.462738 1684.997070,133.459778 
	C1685.008057,157.788193 1685.076416,182.117203 1684.878418,206.444000 
	C1684.859863,208.733887 1683.526489,211.316849 1682.084961,213.219254 
	C1679.991699,215.981644 1677.585815,218.782043 1674.709595,220.623337 
	C1666.958130,225.585861 1667.350342,232.256256 1669.066284,240.035019 
	C1674.281982,263.677124 1679.069092,287.413757 1684.051147,311.107666 
	C1684.211426,311.870148 1684.678711,312.568085 1685.175415,313.683136 
	C1672.818115,313.683136 1660.783813,313.683136 1648.504028,313.683136 
	C1642.578491,285.521057 1636.644897,257.320435 1630.692383,229.029694 
	C1623.477661,229.029694 1616.519775,229.029694 1609.205811,229.029694 
	C1609.205811,257.184784 1609.205811,285.272095 1609.205811,314.001312 
	C1598.442261,314.001312 1588.020874,314.001312 1577.110840,314.001312 
M1623.504028,130.001373 
	C1618.743774,130.001373 1613.983643,130.001373 1609.231445,130.001373 
	C1609.231445,151.258698 1609.231445,171.962860 1609.231445,192.998611 
	C1619.730713,192.998611 1630.003174,193.015610 1640.275513,192.991165 
	C1645.123047,192.979630 1647.987183,190.030334 1647.992676,185.049149 
	C1648.009644,169.418945 1648.006836,153.788712 1647.994263,138.158493 
	C1647.990112,132.852753 1645.199463,130.026840 1639.966675,130.005890 
	C1634.812134,129.985229 1629.657349,130.001373 1623.504028,130.001373 
z"/>
<path fill="#FFFFFF" opacity="1.000000" stroke="none" 
	d="
M749.000977,251.000000 
	C749.000977,265.322906 749.100220,279.147339 748.891174,292.967102 
	C748.860718,294.979553 747.838684,297.427643 746.449036,298.887634 
	C741.532166,304.053589 737.033264,310.735413 730.895325,313.302338 
	C724.926819,315.798431 717.139282,313.983307 710.150391,313.993317 
	C693.496277,314.017212 676.840881,314.098450 660.189636,313.880920 
	C658.047546,313.852936 655.482971,312.673279 653.878174,311.196747 
	C648.751465,306.479797 642.135132,302.155823 639.606384,296.191040 
	C637.149048,290.394714 639.003357,282.761047 639.002563,275.934174 
	C638.996155,222.807541 638.964111,169.680801 639.118347,116.554626 
	C639.124939,114.270630 640.347534,111.504112 641.914978,109.801147 
	C646.747681,104.550728 651.226257,97.799858 657.350159,95.242790 
	C663.464539,92.689697 671.398376,94.423668 678.534912,94.403130 
	C694.522766,94.357124 710.512817,94.262146 726.496582,94.521454 
	C728.971863,94.561623 731.932617,95.799538 733.780945,97.467476 
	C739.073181,102.243111 745.801331,106.724869 748.383911,112.835594 
	C750.895569,118.778442 748.996155,126.594368 748.997437,133.587830 
	C749.004700,172.558548 749.000977,211.529282 749.000977,251.000000 
M676.000977,206.500000 
	C676.001038,227.996307 675.992432,249.492615 676.007263,270.988922 
	C676.010803,276.145691 677.957520,278.090698 683.124146,278.112793 
	C690.289368,278.143433 697.455505,278.174561 704.620178,278.102509 
	C709.934143,278.049042 711.995789,275.878571 711.996338,270.554565 
	C712.001038,226.562195 712.000732,182.569809 711.997009,138.577438 
	C711.996521,132.707382 709.255127,130.030869 703.191101,130.006531 
	C697.025574,129.981796 690.859863,129.996597 684.694275,130.002335 
	C678.556335,130.008026 676.004517,132.498932 676.003113,138.511612 
	C675.997742,160.841080 676.000977,183.170532 676.000977,206.500000 
z"/>
<path fill="#FFFFFF" opacity="1.000000" stroke="none" 
	d="
M1001.001221,123.044884 
	C1001.001221,134.823471 1001.001221,146.109299 1001.001221,157.694550 
	C988.577881,157.694550 976.644653,157.694550 963.998779,157.694550 
	C963.998779,151.528763 964.003845,145.113083 963.997375,138.697403 
	C963.990417,131.871887 961.718872,129.625198 954.792786,129.614304 
	C947.462341,129.602783 940.131592,129.574570 932.801453,129.623779 
	C927.097900,129.662079 925.005737,131.747757 925.004944,137.294144 
	C924.998291,181.443497 924.998352,225.592834 925.004700,269.742188 
	C925.005554,275.403442 927.664490,277.989685 933.449463,277.996460 
	C941.279724,278.005615 949.110168,278.030548 956.940186,277.985535 
	C960.998718,277.962219 963.778381,275.505096 963.866028,271.837555 
	C964.195618,258.053864 963.998169,244.257553 963.998169,230.069550 
	C957.943542,230.069550 952.195984,230.069550 946.230225,230.069550 
	C946.230225,217.936890 946.230225,206.201309 946.230225,194.231583 
	C964.392639,194.231583 982.459717,194.231583 1001.001221,194.231583 
	C1001.001221,195.922043 1001.001160,197.533356 1001.001160,199.144653 
	C1001.001160,229.799301 1000.964600,260.454071 1001.058777,291.108398 
	C1001.067993,294.112762 1000.429810,296.329651 998.122070,298.465912 
	C992.755554,303.433868 988.537048,310.749878 982.287964,313.345184 
	C976.026367,315.945679 967.864563,313.991547 960.535645,313.997101 
	C943.375732,314.010132 926.214905,314.081573 909.057007,313.894012 
	C907.040100,313.871979 904.586853,312.859955 903.112671,311.478180 
	C897.913391,306.604858 891.226318,302.157684 888.592041,296.045349 
	C886.106384,290.277771 888.002319,282.614136 888.001648,275.784515 
	C887.996521,222.805298 888.022278,169.826050 887.937561,116.846962 
	C887.932739,113.821014 888.605042,111.610924 890.914368,109.507408 
	C896.194458,104.697845 900.407837,97.721893 906.537109,95.124260 
	C912.481140,92.605133 920.277344,94.409554 927.260193,94.397614 
	C944.086853,94.368843 960.917053,94.217964 977.737244,94.549744 
	C980.666748,94.607536 983.858459,96.344902 986.380737,98.096169 
	C989.209351,100.060043 991.175598,103.238464 993.941711,105.325630 
	C999.802368,109.747940 1002.254822,115.330864 1001.001221,123.044884 
z"/>
<path fill="#FFFFFF" opacity="1.000000" stroke="none" 
	d="
M1794.584717,278.119263 
	C1798.895142,277.789215 1801.006592,275.837433 1801.003052,271.824982 
	C1800.990234,256.997711 1801.019775,242.170380 1800.984497,227.343170 
	C1800.974365,223.106888 1797.876221,220.025223 1793.623901,220.015244 
	C1778.963257,219.980804 1764.300537,220.120987 1749.643921,219.878860 
	C1747.337036,219.840759 1744.567993,218.705002 1742.856323,217.148895 
	C1737.704590,212.465302 1731.121338,208.104568 1728.599365,202.137405 
	C1726.146851,196.334213 1728.004272,188.701660 1728.001465,181.872330 
	C1727.992310,160.214493 1728.048218,138.556427 1727.940430,116.899124 
	C1727.925537,113.897942 1728.539062,111.660805 1730.875366,109.541885 
	C1736.165405,104.743935 1740.360474,97.695007 1746.489258,95.159058 
	C1752.618652,92.622925 1760.559204,94.412689 1767.706055,94.397629 
	C1783.699585,94.363930 1799.695923,94.230476 1815.683716,94.533928 
	C1818.505493,94.587479 1821.927002,95.868835 1823.990967,97.761597 
	C1838.968384,111.497971 1838.880737,111.593582 1838.880737,132.181763 
	C1838.880737,140.621979 1838.880737,149.062195 1838.880737,157.557587 
	C1837.592041,157.779892 1836.963867,157.981766 1836.335449,157.982788 
	C1824.848633,158.001740 1813.361694,157.996628 1800.998169,157.996628 
	C1800.998169,151.390656 1801.004150,144.979782 1800.996216,138.568909 
	C1800.988892,132.614487 1798.358276,130.009399 1792.350708,130.003418 
	C1785.853394,129.996933 1779.355835,129.982742 1772.858643,130.008255 
	C1767.963135,130.027481 1765.016602,132.963928 1765.008789,137.860260 
	C1764.988281,150.854919 1764.992310,163.849655 1765.006348,176.844330 
	C1765.012085,182.164886 1767.796753,184.986877 1773.062988,184.992554 
	C1787.723633,185.008362 1802.386108,184.889420 1817.043213,185.116043 
	C1819.223389,185.149750 1821.596069,186.433411 1823.511230,187.697235 
	C1836.780151,196.453934 1840.204224,208.720047 1839.234375,224.376816 
	C1837.846436,246.781647 1838.953125,269.337158 1838.764160,291.826385 
	C1838.745972,293.982269 1837.594971,296.578308 1836.118408,298.190186 
	C1831.177734,303.584137 1826.686523,310.614349 1820.436157,313.239319 
	C1814.195190,315.860321 1806.044678,313.979797 1798.731201,313.992767 
	C1782.237915,314.022003 1765.743408,314.098846 1749.252930,313.883759 
	C1747.102905,313.855743 1744.523804,312.714050 1742.918091,311.242737 
	C1737.777344,306.531982 1731.087402,302.214630 1728.620972,296.246979 
	C1726.147461,290.261810 1728.014160,282.477661 1728.001465,275.481903 
	C1727.987061,267.508209 1727.998169,259.534454 1727.998169,250.998047 
	C1734.314941,250.998047 1740.412354,250.998047 1746.509766,250.998047 
	C1752.484741,250.998047 1758.459839,250.998047 1765.001831,250.998047 
	C1765.001831,257.808411 1764.983887,264.405975 1765.007324,271.003387 
	C1765.025635,276.139343 1766.973633,278.090790 1772.137207,278.111847 
	C1779.467407,278.141663 1786.797852,278.119415 1794.584717,278.119263 
z"/>
<path fill="#FFFFFF" opacity="1.000000" stroke="none" 
	d="
M1067.236328,171.346924 
	C1073.294189,146.355026 1079.115967,121.730057 1085.104248,97.145668 
	C1085.373901,96.039337 1087.137329,94.532173 1088.230835,94.510384 
	C1098.391479,94.307884 1108.564087,94.218872 1118.715820,94.583023 
	C1120.170288,94.635185 1122.374512,97.062637 1122.802368,98.752693 
	C1126.067871,111.651024 1128.945435,124.646950 1132.005737,137.597870 
	C1139.798218,170.574738 1147.608032,203.547531 1155.439941,236.515076 
	C1161.541626,262.198944 1167.686646,287.872467 1173.867188,313.780457 
	C1161.354370,313.780457 1148.932861,313.780457 1136.132935,313.780457 
	C1133.098877,299.430023 1129.907227,285.038055 1127.125977,270.567230 
	C1126.588745,267.771942 1125.760498,266.948853 1123.105591,266.964111 
	C1109.284546,267.043732 1095.462646,267.001190 1081.132812,267.001190 
	C1079.083252,276.519836 1077.003418,285.981079 1075.021240,295.462738 
	C1073.926147,300.700714 1073.149536,306.011169 1071.867554,311.199554 
	C1071.588501,312.329071 1069.777588,313.859863 1068.649170,313.879333 
	C1057.174194,314.077332 1045.694458,314.000336 1033.528442,314.000336 
	C1035.556885,305.242828 1037.447876,296.912323 1039.418457,288.600616 
	C1046.598389,258.314270 1053.815552,228.036774 1060.994629,197.750229 
	C1063.048950,189.083939 1065.021606,180.398300 1067.236328,171.346924 
M1107.111938,175.218246 
	C1106.082886,169.863113 1105.053833,164.507980 1104.024780,159.152847 
	C1103.773804,159.196198 1103.522705,159.239548 1103.271606,159.282883 
	C1098.341431,183.061340 1093.411255,206.839798 1088.434814,230.840897 
	C1098.875488,230.840897 1108.820679,230.840897 1118.907471,230.840897 
	C1115.106567,212.423782 1111.342896,194.187561 1107.111938,175.218246 
z"/>
<path fill="#FFFFFF" opacity="1.000000" stroke="none" 
	d="
M315.999939,314.001068 
	C309.515472,314.001068 303.530731,314.001068 297.179596,314.001068 
	C294.102539,299.463104 290.912262,285.079346 288.125519,270.617767 
	C287.595612,267.867828 286.858551,266.946350 284.157318,266.962646 
	C270.337585,267.046021 256.517059,267.001190 242.144562,267.001190 
	C240.428482,274.879517 238.658340,282.731049 237.020187,290.609955 
	C235.599319,297.443878 234.446777,304.336395 232.874008,311.133179 
	C232.610703,312.271088 230.825439,313.856964 229.719574,313.876404 
	C218.244949,314.077698 206.765457,314.000244 194.492065,314.000244 
	C196.266449,306.555176 197.948441,299.540375 199.609558,292.520630 
	C207.076538,260.966003 214.516617,229.404968 222.006516,197.855759 
	C229.981186,164.264511 237.977646,130.678299 246.104645,97.123802 
	C246.371155,96.023422 248.151352,94.531227 249.251465,94.509415 
	C259.410187,94.308044 269.580719,94.218666 279.730347,94.583549 
	C281.182281,94.635750 283.380829,97.071114 283.809113,98.763992 
	C287.071899,111.660278 289.946960,124.654091 293.005981,137.602615 
	C300.795105,170.573303 308.600830,203.540115 316.431274,236.501038 
	C322.531708,262.179626 328.679382,287.847046 334.920990,314.001068 
	C328.688660,314.001068 322.594147,314.001068 315.999939,314.001068 
M255.998337,199.460663 
	C253.822891,209.858093 251.647446,220.255524 249.453049,230.743500 
	C260.047211,230.743500 269.946838,230.743500 279.933533,230.743500 
	C274.922577,206.728149 269.967010,182.978134 265.011414,159.228134 
	C264.783722,159.260818 264.556000,159.293518 264.328308,159.326202 
	C261.552643,172.416168 258.776978,185.506119 255.998337,199.460663 
z"/>
<path fill="#FFFFFF" opacity="1.000000" stroke="none" 
	d="
M92.000641,267.001068 
	C85.514359,267.001068 79.527931,267.001068 73.107018,267.001068 
	C71.057327,276.590179 68.991875,286.066711 67.017754,295.562286 
	C65.928741,300.800476 65.151535,306.109985 63.861580,311.294769 
	C63.586018,312.402283 61.712532,313.864014 60.553654,313.883545 
	C49.083332,314.076721 37.608475,314.000458 25.511597,314.000458 
	C27.564707,305.204193 29.480000,296.860474 31.461765,288.532593 
	C38.628632,258.415466 45.835060,228.307739 52.994011,198.188751 
	C61.015339,164.441559 68.982155,130.681366 77.094421,96.956108 
	C77.339920,95.935493 78.931046,94.523232 79.916008,94.505997 
	C90.242203,94.325310 100.578827,94.221817 110.894928,94.590485 
	C112.302910,94.640808 114.403854,97.188660 114.844574,98.920914 
	C118.084343,111.655060 120.964073,124.480461 123.993523,137.268524 
	C130.195511,163.448608 136.451614,189.615906 142.627579,215.802124 
	C150.140244,247.655914 157.590775,279.524353 165.087219,311.381989 
	C165.267899,312.149841 165.673172,312.864838 166.071960,313.846375 
	C153.308380,313.846375 140.852692,313.846375 128.115875,313.846375 
	C125.068161,299.346497 121.885269,284.939392 119.125221,270.451721 
	C118.572952,267.552795 117.543686,266.935944 114.991158,266.967804 
	C107.495300,267.061371 99.997520,267.001099 92.000641,267.001068 
M105.654335,204.928192 
	C102.422371,189.719788 99.190407,174.511398 95.958443,159.302994 
	C95.716087,159.352417 95.473740,159.401840 95.231384,159.451248 
	C90.314095,183.182312 85.396805,206.913361 80.453911,230.767944 
	C91.012894,230.767944 100.924850,230.767944 110.785927,230.767944 
	C109.154610,222.279526 107.564705,214.006607 105.654335,204.928192 
z"/>
<path fill="#FFFFFF" opacity="1.000000" stroke="none" 
	d="
M1504.000000,278.119446 
	C1512.136841,278.119446 1519.773682,278.119446 1527.704590,278.119446 
	C1527.704590,290.120422 1527.704590,301.841003 1527.704590,313.782959 
	C1492.913940,313.782959 1458.181641,313.782959 1423.223633,313.782959 
	C1423.223633,240.751831 1423.223633,167.844467 1423.223633,94.662018 
	C1458.022217,94.662018 1492.761230,94.662018 1527.751221,94.662018 
	C1527.751221,106.358673 1527.751221,117.932556 1527.751221,129.903275 
	C1505.303467,129.903275 1482.899536,129.903275 1460.250488,129.903275 
	C1460.250488,148.364853 1460.250488,166.433105 1460.250488,184.899155 
	C1477.031616,184.899155 1493.770996,184.899155 1510.753784,184.899155 
	C1510.753784,196.696701 1510.753784,208.100388 1510.753784,219.902435 
	C1493.972412,219.902435 1477.233032,219.902435 1460.250000,219.902435 
	C1460.250000,239.374725 1460.250000,258.452454 1460.250000,278.119446 
	C1474.658691,278.119446 1489.079346,278.119446 1504.000000,278.119446 
z"/>
<path fill="#FFFFFF" opacity="1.000000" stroke="none" 
	d="
M576.000244,94.386642 
	C584.130188,94.386650 591.760132,94.386650 599.688599,94.386650 
	C599.688599,106.419945 599.688599,117.844772 599.688599,129.669342 
	C586.878784,129.669342 573.803955,129.669342 560.165222,129.669342 
	C560.165222,191.246506 560.165222,252.429413 560.165222,313.800842 
	C547.529846,313.800842 535.459534,313.800842 523.001099,313.800842 
	C523.001099,252.537277 523.001099,191.473389 523.001099,130.012451 
	C509.546021,130.012451 496.470825,130.012451 483.200653,130.012451 
	C483.200653,118.181946 483.200653,106.748901 483.200653,94.386627 
	C514.019531,94.386627 544.759888,94.386627 576.000244,94.386642 
z"/>
<path fill="#FFFFFF" opacity="1.000000" stroke="none" 
	d="
M372.998749,174.000000 
	C372.998749,147.350937 372.998749,121.201881 372.998749,94.720825 
	C385.258636,94.720825 397.318237,94.720825 409.781128,94.720825 
	C409.781128,155.697418 409.781128,216.578644 409.781128,277.895874 
	C431.226379,277.895874 452.279449,277.895874 473.665497,277.895874 
	C473.665497,290.044586 473.665497,301.763977 473.665497,313.743805 
	C440.327850,313.743805 406.932068,313.743805 372.998749,313.743805 
	C372.998749,267.330902 372.998749,220.915451 372.998749,174.000000 
z"/>
</svg>